<svg xmlns="http://www.w3.org/2000/svg" viewBox="0 0 914.63 166.67"><defs><style>.cls-1{fill:#fff;}</style></defs><title>OPTiHOUSES_W_HORIZONTAL</title><g id="Layer_2" data-name="Layer 2"><g id="Layer_1-2" data-name="Layer 1"><path class="cls-1" d="M215,33h0a34.15,34.15,0,0,0-34.15,34.15V99.27A34.15,34.15,0,0,0,215,133.42h0a34.15,34.15,0,0,0,34.15-34.15V67.13A34.15,34.15,0,0,0,215,33Zm22.1,66.29a22.1,22.1,0,0,1-22.1,22.1h0a22.1,22.1,0,0,1-22.1-22.1V67.13A22.1,22.1,0,0,1,215,45h0a22.1,22.1,0,0,1,22.1,22.1Z"/><circle class="cls-1" cx="431.9" cy="39.01" r="6.03"/><path class="cls-1" d="M403.78,33H347.54a6,6,0,1,0,0,12.05h22.1v82.36a6,6,0,1,0,12.05,0V45h22.1a6,6,0,1,0,0-12.05Z"/><path class="cls-1" d="M299.33,33H271.21a6,6,0,0,0-6,6v88.38a6,6,0,1,0,12.05,0V101.28h22.1a34.15,34.15,0,0,0,0-68.3Zm0,56.24h-22.1V45h22.1a22.1,22.1,0,0,1,0,44.19Z"/><path class="cls-1" d="M431.9,61.1a6,6,0,0,0-6,6v60.26a6,6,0,1,0,12.05,0V67.13A6,6,0,0,0,431.9,61.1Z"/><path class="cls-1" d="M576.78,33h0A34.18,34.18,0,0,0,542.6,67.16V99.33a34.18,34.18,0,0,0,34.18,34.18h0A34.18,34.18,0,0,0,611,99.33V67.16A34.18,34.18,0,0,0,576.78,33Zm22.11,66.34a22.11,22.11,0,0,1-22.11,22.11h0a22.11,22.11,0,0,1-22.11-22.11V67.16A22.11,22.11,0,0,1,576.78,45h0a22.11,22.11,0,0,1,22.11,22.11Z"/><path class="cls-1" d="M689.36,33a6,6,0,0,0-6,6V99.33a22.11,22.11,0,0,1-22.11,22.11h0A22.11,22.11,0,0,1,639.1,99.33V39A6,6,0,0,0,627,39V99.33a34.18,34.18,0,0,0,34.18,34.18h0a34.18,34.18,0,0,0,34.18-34.18V39A6,6,0,0,0,689.36,33Z"/><path class="cls-1" d="M520.49,33a6,6,0,0,0-6,6v38.2H470.23V39a6,6,0,1,0-12.06,0v88.46a6,6,0,1,0,12.06,0V89.28h44.23v38.2a6,6,0,1,0,12.06,0V39A6,6,0,0,0,520.49,33Z"/><path class="cls-1" d="M836.19,45a6,6,0,0,0,0-12.06H791.4a6,6,0,0,0-3.84,1.38q-.22.18-.43.39A6,6,0,0,0,785.37,39v88.46a6,6,0,0,0,1.77,4.26q.2.2.43.39a6,6,0,0,0,1,.65,6,6,0,0,0,2.87.73h44.79a6,6,0,1,0,0-12.06H797.43V89.28h22.11a6,6,0,0,0,0-12.06H797.43V45Z"/><path class="cls-1" d="M737,32.15a28.15,28.15,0,0,0-26.66,29.56c.41,8,1.57,21.32,25.44,24.83,20.28,3,20.9,15,21.11,19a16.08,16.08,0,0,1-15.23,16.89,32.07,32.07,0,0,1-23.2-8.24A6,6,0,0,0,708.4,119a6,6,0,0,0,2,4.2,44.09,44.09,0,0,0,31.9,11.33A28.15,28.15,0,0,0,769,105c-1.45-28.11-28.57-29.8-33.78-30.47-5.8-.74-12.28-4-12.77-13.4A16.08,16.08,0,0,1,737.65,44.2a32.07,32.07,0,0,1,23.2,8.24,6,6,0,1,0,8.08-9A44.09,44.09,0,0,0,737,32.15Z"/><path class="cls-1" d="M880.73,32.15a28.15,28.15,0,0,0-26.66,29.56c.41,8,1.57,21.32,25.44,24.83,20.28,3,20.9,15,21.11,19a16.08,16.08,0,0,1-15.23,16.89,32.07,32.07,0,0,1-23.2-8.24A6,6,0,0,0,852.1,119a6,6,0,0,0,2,4.2A44.09,44.09,0,0,0,886,134.51,28.15,28.15,0,0,0,912.66,105c-1.45-28.11-28.57-29.8-33.78-30.47-5.8-.74-12.28-4-12.77-13.4A16.08,16.08,0,0,1,881.35,44.2a32.07,32.07,0,0,1,23.2,8.24,6,6,0,1,0,8.08-9A44.09,44.09,0,0,0,880.73,32.15Z"/><path class="cls-1" d="M145.67,44.17a5,5,0,0,0-2.5-4.33L109.25,20.25l-2.5,4.33,2.5-4.33L75.34.67a5,5,0,0,0-5,0h0L2.5,39.84A5,5,0,0,0,0,44.17V83.33H0V122.5a5,5,0,0,0,2.5,4.33L36.4,146.4h0L70.34,166a5,5,0,0,0,5,0l33.92-19.58h0l33.9-19.57a5,5,0,0,0,2.5-4.33V83.33h0ZM43.92,105.8,67.84,92v27.62L43.92,133.42ZM77.84,92l23.92,13.81v27.62L77.84,119.61Zm28.92,5.15L75.34,79a5,5,0,0,0-5,0L38.92,97.14l-1.73-1L15,83.33,72.84,49.94,75,51.19l55.67,32.14Zm28.92-50.09V74.67L77.84,41.28V13.66l26.42,15.25ZM67.84,13.66V41.28L10,74.67V47.05ZM10,92,33.92,105.8v27.62L10,119.61Zm62.84,63.9L48.92,142.09l23.92-13.81,23.92,13.81Zm38.92-22.47V105.81L135.67,92v27.62Z"/></g></g></svg>