<svg xmlns="http://www.w3.org/2000/svg" viewBox="0 0 257.31 334.23"><defs><style>.cls-1{fill:#fff;}</style></defs><title>OPTi_W_VERTICAL</title><g id="Layer_2" data-name="Layer 2"><g id="Layer_1-2" data-name="Layer 1"><path class="cls-1" d="M202.84,39.81,169,20.25h0L135,.66a4.9,4.9,0,0,0-4.9,0L96.23,20.23h0L62.32,39.81a4.9,4.9,0,0,0-2.45,4.24V83.2h0v39.15a4.9,4.9,0,0,0,2.45,4.24l33.89,19.57h0l33.9,19.57a4.9,4.9,0,0,0,4.9,0l33.9-19.58h0l33.9-19.57a4.9,4.9,0,0,0,2.45-4.24V83.2h0V44.05A4.9,4.9,0,0,0,202.84,39.81Zm-7.35,34.91L171.39,60.8V33l24.1,13.92Zm-53.11,47.64,19.21-11.09v22.18Zm-19.6-78.3-19.2,11.09V33Zm38.8,16.75L141.17,72.59l-3.69,2.13V46.88L161.59,33Zm-33.9,13.92-19.2-11.09,19.2-11.09Zm9.8,17,19.2,11.09-19.2,11.09ZM98.68,69.29,122.78,83.2,98.68,97.12,74.57,83.2Zm4.9,36.32,24.1-13.92v27.84l-24.1,13.92Zm62.91-8.49L142.38,83.2l3.24-1.87,20.87-12L190.59,83.2ZM132.58,10.56l24.11,13.92L132.58,38.39,108.48,24.48ZM93.78,33V60.8L69.67,74.72V46.88ZM69.67,91.69l24.1,13.92v27.84l-24.1-13.92Zm62.91,64.16-24.11-13.92L132.58,128l24.11,13.92Zm38.8-22.4V105.61l24.1-13.92v27.84Z"/><path class="cls-1" d="M15,326.52H8.17V334h-2V317.79h2v6.92H15v-6.92h2V334H15Z"/><path class="cls-1" d="M25.47,328.63V323.2c0-3.39,1.76-5.59,5.39-5.59s5.39,2.21,5.39,5.59v5.43c0,3.39-1.76,5.59-5.39,5.59S25.47,332,25.47,328.63Zm8.8-.23v-5c0-2.51-.91-3.95-3.41-3.95s-3.41,1.44-3.41,3.95v5c0,2.51.91,3.95,3.41,3.95S34.27,330.91,34.27,328.4Z"/><path class="cls-1" d="M44.71,328.94V317.79h2V328.7c0,2.18.7,3.65,3.32,3.65s3.32-1.46,3.32-3.65V317.79h2v11.14c0,3.39-1.79,5.29-5.29,5.29S44.71,332.33,44.71,328.94Z"/><path class="cls-1" d="M71.25,329.56c0-5-7.78-1.83-7.78-7.61,0-2.79,1.65-4.34,4.69-4.34a7.2,7.2,0,0,1,4.41,1.46l-.88,1.49a6.41,6.41,0,0,0-3.53-1.11c-2.28,0-2.76,1.18-2.76,2.48,0,3.71,7.78,1.28,7.78,7.48,0,2.65-1.44,4.83-5.13,4.83a8.49,8.49,0,0,1-4.92-1.56l.91-1.56a8,8,0,0,0,4,1.23C70.46,332.35,71.25,331.12,71.25,329.56Z"/><path class="cls-1" d="M81.26,317.79h2V334h-2Z"/><path class="cls-1" d="M92.29,317.79H93.8L101.39,330h.12V317.79h1.86V334h-1.72l-7.38-12h-.12v12H92.29Z"/><path class="cls-1" d="M113.81,323.43v5c0,2.51.93,3.95,3.41,3.95a4.08,4.08,0,0,0,3.34-1.39v-3.69h-3.09v-1.81h4.95v6.11a5.94,5.94,0,0,1-5.2,2.67c-3.62,0-5.39-2.21-5.39-5.59V323.2c0-3.39,1.76-5.59,5.39-5.59a4.74,4.74,0,0,1,4.76,3.06l-1.6.81a3.25,3.25,0,0,0-3.16-2C114.74,319.49,113.81,320.93,113.81,323.43Z"/><path class="cls-1" d="M148.63,329.56c0-5-7.78-1.83-7.78-7.61,0-2.79,1.65-4.34,4.69-4.34a7.2,7.2,0,0,1,4.41,1.46l-.88,1.49a6.41,6.41,0,0,0-3.53-1.11c-2.27,0-2.76,1.18-2.76,2.48,0,3.71,7.78,1.28,7.78,7.48,0,2.65-1.44,4.83-5.13,4.83a8.49,8.49,0,0,1-4.92-1.56l.91-1.56a8,8,0,0,0,4,1.23C147.85,332.35,148.63,331.12,148.63,329.56Z"/><path class="cls-1" d="M161.52,328l-4.9-10.22h2.21l3.62,8.17h.12l3.62-8.17h2.25L163.49,328v6h-2Z"/><path class="cls-1" d="M182.32,329.56c0-5-7.78-1.83-7.78-7.61,0-2.79,1.65-4.34,4.69-4.34a7.2,7.2,0,0,1,4.41,1.46l-.88,1.49a6.41,6.41,0,0,0-3.53-1.11c-2.27,0-2.76,1.18-2.76,2.48,0,3.71,7.78,1.28,7.78,7.48,0,2.65-1.44,4.83-5.13,4.83a8.49,8.49,0,0,1-4.92-1.56l.91-1.56a8,8,0,0,0,4,1.23C181.53,332.35,182.32,331.12,182.32,329.56Z"/><path class="cls-1" d="M197.21,334h-2V319.6h-4.41v-1.81h10.77v1.81h-4.39Z"/><path class="cls-1" d="M211.48,324.85h5.8v1.81h-5.8v5.57h6.31V334h-8.29V317.79h8.29v1.81h-6.31Z"/><path class="cls-1" d="M232.31,331.07l-4.23-8.38H228V334h-1.86V317.79h1.44L232.77,328l5.2-10.22h1.46V334h-1.86V322.69h-.12l-4.23,8.38Z"/><path class="cls-1" d="M255.39,329.56c0-5-7.78-1.83-7.78-7.61,0-2.79,1.65-4.34,4.69-4.34a7.2,7.2,0,0,1,4.41,1.46l-.88,1.49a6.41,6.41,0,0,0-3.53-1.11c-2.27,0-2.76,1.18-2.76,2.48,0,3.71,7.78,1.28,7.78,7.48,0,2.65-1.44,4.83-5.13,4.83a8.49,8.49,0,0,1-4.92-1.56l.91-1.56a8,8,0,0,0,4,1.23C254.6,332.35,255.39,331.12,255.39,329.56Z"/><path class="cls-1" d="M34.17,200.66h0A34.17,34.17,0,0,0,0,234.83V267a34.17,34.17,0,0,0,34.17,34.17h0A34.17,34.17,0,0,0,68.35,267V234.83A34.17,34.17,0,0,0,34.17,200.66ZM56.29,267a22.11,22.11,0,0,1-22.11,22.11h0A22.11,22.11,0,0,1,12.06,267V234.83a22.11,22.11,0,0,1,22.11-22.11h0a22.11,22.11,0,0,1,22.11,22.11Z"/><circle class="cls-1" cx="251.28" cy="206.69" r="6.03"/><path class="cls-1" d="M223.14,200.66H166.85a6,6,0,1,0,0,12.06H189v82.42a6,6,0,0,0,12.06,0V212.72h22.11a6,6,0,1,0,0-12.06Z"/><path class="cls-1" d="M118.61,200.66H90.46a6,6,0,0,0-6,6v88.45a6,6,0,1,0,12.06,0V269h22.11a34.17,34.17,0,0,0,34.17-34.17h0A34.17,34.17,0,0,0,118.61,200.66Zm22.11,34.17a22.11,22.11,0,0,1-22.11,22.11H96.49V212.72h22.11a22.11,22.11,0,0,1,22.11,22.11Z"/><path class="cls-1" d="M251.28,228.8a6,6,0,0,0-6,6v60.31a6,6,0,1,0,12.06,0V234.83A6,6,0,0,0,251.28,228.8Z"/></g></g></svg>