<svg xmlns="http://www.w3.org/2000/svg" viewBox="0 0 437.01 166.41"><defs><style>.cls-1{fill:#1d1d1b;}</style></defs><title>OPTi_B_HORIZONTAL</title><g id="Layer_2" data-name="Layer 2"><g id="Layer_1-2" data-name="Layer 1"><path class="cls-1" d="M143,39.81,109.09,20.25h0L75.16.66a4.9,4.9,0,0,0-4.9,0L36.35,20.23h0L2.45,39.81A4.9,4.9,0,0,0,0,44.05V83.2H0v39.15a4.9,4.9,0,0,0,2.45,4.24l33.89,19.57h0l33.9,19.57a4.9,4.9,0,0,0,4.9,0l33.9-19.58h0L143,126.6a4.9,4.9,0,0,0,2.45-4.24V83.2h0V44.05A4.9,4.9,0,0,0,143,39.81Zm-7.35,34.91L111.51,60.8V33l24.1,13.92ZM82.51,122.36l19.21-11.09v22.18Zm-19.6-78.3L43.7,55.14V33Zm38.8,16.75L81.29,72.59l-3.69,2.13V46.88L101.71,33ZM67.81,74.72,48.6,63.63l19.2-11.09Zm9.8,17,19.2,11.09-19.2,11.09ZM38.8,69.29,62.91,83.2,38.8,97.12,14.7,83.2Zm4.9,36.32,24.1-13.92v27.84L43.7,133.44Zm62.91-8.49L82.51,83.2l3.24-1.87,20.87-12L130.72,83.2ZM72.71,10.56,96.82,24.48,72.71,38.39,48.6,24.48ZM33.9,33V60.8L9.8,74.72V46.88ZM9.8,91.69l24.1,13.92v27.84L9.8,119.53Zm62.91,64.16L48.6,141.93,72.71,128l24.11,13.92Zm38.8-22.4V105.61l24.1-13.92v27.84Z"/><path class="cls-1" d="M194.71,158.7h-6.85v7.52h-2V150h2v6.92h6.85V150h2v16.25h-2Z"/><path class="cls-1" d="M205.16,160.81v-5.43c0-3.39,1.76-5.59,5.39-5.59s5.39,2.21,5.39,5.59v5.43c0,3.39-1.76,5.59-5.39,5.59S205.16,164.2,205.16,160.81Zm8.8-.23v-5c0-2.51-.91-3.95-3.41-3.95s-3.41,1.44-3.41,3.95v5c0,2.51.91,3.95,3.41,3.95S214,163.09,214,160.58Z"/><path class="cls-1" d="M224.41,161.11V150h2v10.91c0,2.18.7,3.65,3.32,3.65s3.32-1.46,3.32-3.65V150h2v11.14c0,3.39-1.79,5.29-5.29,5.29S224.41,164.5,224.41,161.11Z"/><path class="cls-1" d="M250.94,161.74c0-5-7.78-1.83-7.78-7.61,0-2.79,1.65-4.34,4.69-4.34a7.2,7.2,0,0,1,4.41,1.46l-.88,1.49a6.41,6.41,0,0,0-3.53-1.11c-2.28,0-2.76,1.18-2.76,2.48,0,3.71,7.78,1.28,7.78,7.48,0,2.65-1.44,4.83-5.13,4.83a8.49,8.49,0,0,1-4.92-1.56l.91-1.56a8,8,0,0,0,4,1.23C250.15,164.53,250.94,163.3,250.94,161.74Z"/><path class="cls-1" d="M261,150h2v16.25h-2Z"/><path class="cls-1" d="M272,150h1.51l7.59,12.21h.12V150h1.86v16.25h-1.72l-7.38-12h-.12v12H272Z"/><path class="cls-1" d="M293.5,155.61v5c0,2.51.93,3.95,3.41,3.95a4.08,4.08,0,0,0,3.34-1.39v-3.69h-3.09v-1.81h4.95v6.11a5.94,5.94,0,0,1-5.2,2.67c-3.62,0-5.39-2.21-5.39-5.59v-5.43c0-3.39,1.76-5.59,5.39-5.59a4.74,4.74,0,0,1,4.76,3.06l-1.6.81a3.25,3.25,0,0,0-3.16-2C294.43,151.67,293.5,153.11,293.5,155.61Z"/><path class="cls-1" d="M328.33,161.74c0-5-7.78-1.83-7.78-7.61,0-2.79,1.65-4.34,4.69-4.34a7.2,7.2,0,0,1,4.41,1.46l-.88,1.49a6.41,6.41,0,0,0-3.53-1.11c-2.27,0-2.76,1.18-2.76,2.48,0,3.71,7.78,1.28,7.78,7.48,0,2.65-1.44,4.83-5.13,4.83a8.49,8.49,0,0,1-4.92-1.56l.91-1.56a8,8,0,0,0,4,1.23C327.54,164.53,328.33,163.3,328.33,161.74Z"/><path class="cls-1" d="M341.21,160.19,336.31,150h2.21l3.62,8.17h.12l3.62-8.17h2.25l-4.95,10.22v6h-2Z"/><path class="cls-1" d="M362,161.74c0-5-7.78-1.83-7.78-7.61,0-2.79,1.65-4.34,4.69-4.34a7.2,7.2,0,0,1,4.41,1.46l-.88,1.49a6.41,6.41,0,0,0-3.53-1.11c-2.27,0-2.76,1.18-2.76,2.48,0,3.71,7.78,1.28,7.78,7.48,0,2.65-1.44,4.83-5.13,4.83a8.49,8.49,0,0,1-4.92-1.56l.91-1.56a8,8,0,0,0,4,1.23C361.23,164.53,362,163.3,362,161.74Z"/><path class="cls-1" d="M376.9,166.22h-2V151.78h-4.41V150h10.77v1.81H376.9Z"/><path class="cls-1" d="M391.18,157H397v1.81h-5.8v5.57h6.31v1.81H389.2V150h8.29v1.81h-6.31Z"/><path class="cls-1" d="M412,163.25l-4.23-8.38h-.12v11.35H405.8V150h1.44l5.22,10.22,5.2-10.22h1.46v16.25h-1.86V154.87h-.12l-4.23,8.38Z"/><path class="cls-1" d="M435.08,161.74c0-5-7.78-1.83-7.78-7.61,0-2.79,1.65-4.34,4.69-4.34a7.2,7.2,0,0,1,4.41,1.46l-.88,1.49a6.41,6.41,0,0,0-3.53-1.11c-2.27,0-2.76,1.18-2.76,2.48,0,3.71,7.78,1.28,7.78,7.48,0,2.65-1.44,4.83-5.13,4.83a8.49,8.49,0,0,1-4.92-1.56l.91-1.56a8,8,0,0,0,4,1.23C434.29,164.53,435.08,163.3,435.08,161.74Z"/><path class="cls-1" d="M213.87,32.84h0A34.17,34.17,0,0,0,179.69,67V99.18a34.17,34.17,0,0,0,34.17,34.17h0A34.17,34.17,0,0,0,248,99.18V67A34.17,34.17,0,0,0,213.87,32.84ZM236,99.18a22.11,22.11,0,0,1-22.11,22.11h0a22.11,22.11,0,0,1-22.11-22.11V67A22.11,22.11,0,0,1,213.87,44.9h0A22.11,22.11,0,0,1,236,67Z"/><circle class="cls-1" cx="430.98" cy="38.87" r="6.03"/><path class="cls-1" d="M402.83,32.84H346.54a6,6,0,0,0,0,12.06h22.11v82.42a6,6,0,1,0,12.06,0V44.9h22.11a6,6,0,1,0,0-12.06Z"/><path class="cls-1" d="M298.3,32.84H270.15a6,6,0,0,0-6,6v88.45a6,6,0,1,0,12.06,0V101.19H298.3A34.17,34.17,0,0,0,332.47,67h0A34.17,34.17,0,0,0,298.3,32.84ZM320.41,67A22.11,22.11,0,0,1,298.3,89.12H276.19V44.9H298.3A22.11,22.11,0,0,1,320.41,67Z"/><path class="cls-1" d="M431,61a6,6,0,0,0-6,6v60.31a6,6,0,1,0,12.06,0V67A6,6,0,0,0,431,61Z"/></g></g></svg>