<svg xmlns="http://www.w3.org/2000/svg" viewBox="0 0 733.81 302.87"><defs><style>.cls-1{fill:#fff;}</style></defs><title>OPTiHOUSES_W_VERTICAL</title><g id="Layer_2" data-name="Layer 2"><g id="Layer_1-2" data-name="Layer 1"><path class="cls-1" d="M34.15,201.27h0A34.15,34.15,0,0,0,0,235.42v32.14a34.15,34.15,0,0,0,34.15,34.15h0A34.15,34.15,0,0,0,68.3,267.56V235.42A34.15,34.15,0,0,0,34.15,201.27Zm22.1,66.29a22.1,22.1,0,0,1-22.1,22.1h0a22.1,22.1,0,0,1-22.1-22.1V235.42a22.1,22.1,0,0,1,22.1-22.1h0a22.1,22.1,0,0,1,22.1,22.1Z"/><circle class="cls-1" cx="251.09" cy="207.3" r="6.03"/><path class="cls-1" d="M223,201.27H166.72a6,6,0,0,0,0,12.05h22.1v82.36a6,6,0,0,0,12.05,0V213.32H223a6,6,0,0,0,0-12.05Z"/><path class="cls-1" d="M118.51,201.27H90.39a6,6,0,0,0-6,6v88.38a6,6,0,0,0,12.05,0V269.57h22.1a34.15,34.15,0,0,0,0-68.3Zm0,56.24H96.42V213.32h22.1a22.1,22.1,0,0,1,0,44.19Z"/><path class="cls-1" d="M251.09,229.39a6,6,0,0,0-6,6v60.26a6,6,0,0,0,12.05,0V235.42A6,6,0,0,0,251.09,229.39Z"/><path class="cls-1" d="M396,201.28h0a34.18,34.18,0,0,0-34.18,34.18v32.17A34.18,34.18,0,0,0,396,301.8h0a34.18,34.18,0,0,0,34.18-34.18V235.45A34.18,34.18,0,0,0,396,201.28Zm22.11,66.34A22.11,22.11,0,0,1,396,289.73h0a22.11,22.11,0,0,1-22.11-22.11V235.45A22.11,22.11,0,0,1,396,213.34h0a22.11,22.11,0,0,1,22.11,22.11Z"/><path class="cls-1" d="M508.54,201.28a6,6,0,0,0-6,6v60.31a22.11,22.11,0,0,1-22.11,22.11h0a22.11,22.11,0,0,1-22.11-22.11V207.31a6,6,0,1,0-12.06,0v60.31A34.18,34.18,0,0,0,480.4,301.8h0a34.18,34.18,0,0,0,34.18-34.18V207.31A6,6,0,0,0,508.54,201.28Z"/><path class="cls-1" d="M339.67,201.28a6,6,0,0,0-6,6v38.2H289.41v-38.2a6,6,0,0,0-12.06,0v88.46a6,6,0,0,0,12.06,0v-38.2h44.23v38.2a6,6,0,1,0,12.06,0V207.31A6,6,0,0,0,339.67,201.28Z"/><path class="cls-1" d="M655.37,213.34a6,6,0,0,0,0-12.06H610.58a6,6,0,0,0-3.84,1.38q-.22.18-.43.39a6,6,0,0,0-1.77,4.26v88.46a6,6,0,0,0,1.77,4.26q.2.2.43.39a6,6,0,0,0,1,.65,6,6,0,0,0,2.87.73h44.79a6,6,0,0,0,0-12.06H616.61V257.57h22.11a6,6,0,1,0,0-12.06H616.61V213.34Z"/><path class="cls-1" d="M556.21,200.45A28.15,28.15,0,0,0,529.55,230c.41,8,1.57,21.32,25.44,24.83,20.28,3,20.9,15,21.11,19a16.08,16.08,0,0,1-15.23,16.89,32.07,32.07,0,0,1-23.2-8.24,6,6,0,0,0-10.09,4.76,6,6,0,0,0,2,4.2,44.09,44.09,0,0,0,31.9,11.33,28.15,28.15,0,0,0,26.66-29.56c-1.45-28.11-28.57-29.8-33.78-30.47-5.8-.74-12.28-4-12.77-13.4a16.08,16.08,0,0,1,15.23-16.89,32.07,32.07,0,0,1,23.2,8.24,6,6,0,1,0,8.08-9A44.09,44.09,0,0,0,556.21,200.45Z"/><path class="cls-1" d="M699.91,200.45A28.15,28.15,0,0,0,673.25,230c.41,8,1.57,21.32,25.44,24.83,20.28,3,20.9,15,21.11,19a16.08,16.08,0,0,1-15.23,16.89,32.07,32.07,0,0,1-23.2-8.24,6,6,0,0,0-10.09,4.76,6,6,0,0,0,2,4.2,44.09,44.09,0,0,0,31.9,11.33,28.15,28.15,0,0,0,26.66-29.56c-1.45-28.11-28.57-29.8-33.78-30.47-5.8-.74-12.28-4-12.77-13.4a16.08,16.08,0,0,1,15.23-16.89,32.07,32.07,0,0,1,23.2,8.24,6,6,0,1,0,8.08-9A44.09,44.09,0,0,0,699.91,200.45Z"/><path class="cls-1" d="M439.95,44.17a5,5,0,0,0-2.5-4.33L403.53,20.25,401,24.58l2.5-4.33L369.61.67a5,5,0,0,0-5,0h0L296.78,39.84a5,5,0,0,0-2.5,4.33V83.33h0V122.5a5,5,0,0,0,2.5,4.33l33.9,19.57h0L364.61,166a5,5,0,0,0,5,0l33.92-19.58h0l33.9-19.57a5,5,0,0,0,2.5-4.33V83.33h0ZM338.19,105.8,362.11,92v27.62l-23.92,13.81ZM372.11,92,396,105.81v27.62l-23.92-13.81ZM401,97.14,369.61,79a5,5,0,0,0-5,0L333.19,97.14l-1.73-1L309.28,83.33l57.84-33.39,2.17,1.25,55.67,32.14Zm28.92-50.09V74.67L372.11,41.28V13.66l26.42,15.25ZM362.11,13.66V41.28L304.28,74.67V47.05ZM304.28,92l23.92,13.81v27.62l-23.92-13.81Zm62.84,63.9-23.92-13.81,23.92-13.81L391,142.09ZM406,133.42V105.81L429.95,92v27.62Z"/></g></g></svg>